<svg id="Layer_1" data-name="Layer 1" xmlns="http://www.w3.org/2000/svg" viewBox="0 0 1559.06 1559.06"><title>black</title><polygon points="940.18 808.01 940.18 1033.11 907.09 1064.11 785.3 1178.19 665.15 1065.64 171.27 602.97 171.27 1211.11 0 1050.27 0 214.36 171.27 374.8 786.94 951.55 940.18 808.01"/><polygon points="548.29 1056.86 548.29 1559.06 377.04 1398.23 377.04 896.43 548.29 1056.86"/><polygon points="1179.04 376.6 1179.04 1381.8 1007.77 1542.64 1007.77 447.37 785.62 239.26 548.29 461.6 548.29 628.67 376.85 468.06 376.85 374.86 653.61 115.6 777.01 0 909.03 123.67 1007.77 216.16 1179.04 376.6"/><polygon points="1559.06 228.27 1559.06 1048.61 1387.79 1209.46 1387.79 613.76 1245.23 747.3 1245.23 522.26 1387.79 388.71 1559.06 228.27"/><polygon points="677.87 467.97 605.05 547.09 677.87 626.19 677.87 665.03 587.16 566.47 569.59 547.38 587.47 527.98 677.87 429.76 677.87 467.97"/><polygon points="986.83 547.41 968.95 566.82 876.9 666.84 876.9 628.62 951.38 547.71 876.9 466.79 876.9 427.95 969.25 528.31 986.83 547.41"/><polygon points="828.48 366.44 814.87 429.85 750.44 730.46 725.72 730.46 803.76 366.44 828.48 366.44"/></svg>