<svg id="Layer_1" data-name="Layer 1" xmlns="http://www.w3.org/2000/svg" xmlns:xlink="http://www.w3.org/1999/xlink" viewBox="0 0 1559.06 1559.06">
    <defs>
        <style>.cls-1{fill:url(#linear-gradient);}.cls-2{fill:url(#linear-gradient-2);}.cls-3{fill:url(#linear-gradient-3);}.cls-4{fill:url(#linear-gradient-4);}.cls-5{fill:url(#linear-gradient-5);}.cls-6{fill:url(#linear-gradient-6);}.cls-7{fill:url(#linear-gradient-7);}</style>
        <linearGradient id="linear-gradient" x1="470.09" y1="1211.11" x2="470.09" y2="214.36" gradientUnits="userSpaceOnUse">
            <stop offset="0" stop-color="#fff"/>
            <stop offset="0.51" stop-color="#179e17"/>
            <stop offset="1" stop-color="#0f9b0f"/>
        </linearGradient>
        <linearGradient id="linear-gradient-2" x1="462.67" y1="1559.06" x2="462.67" y2="896.43" xlink:href="#linear-gradient"/>
        <linearGradient id="linear-gradient-3" x1="777.94" y1="1542.64" x2="777.94" y2="0" xlink:href="#linear-gradient"/>
        <linearGradient id="linear-gradient-4" x1="1402.14" y1="1209.46" x2="1402.14" y2="228.27" xlink:href="#linear-gradient"/>
        <linearGradient id="linear-gradient-5" x1="623.73" y1="665.03" x2="623.73" y2="429.76" xlink:href="#linear-gradient"/>
        <linearGradient id="linear-gradient-6" x1="931.87" y1="666.84" x2="931.87" y2="427.95" xlink:href="#linear-gradient"/>
        <linearGradient id="linear-gradient-7" x1="777.1" y1="730.46" x2="777.1" y2="366.44" xlink:href="#linear-gradient"/>
    </defs>
    <title>gradient</title>
    <polygon class="cls-1" points="940.18 808.01 940.18 1033.11 907.09 1064.11 785.3 1178.19 665.15 1065.64 171.27 602.97 171.27 1211.11 0 1050.27 0 214.36 171.27 374.8 786.94 951.55 940.18 808.01"/>
    <polygon class="cls-2" points="548.29 1056.86 548.29 1559.06 377.04 1398.23 377.04 896.43 548.29 1056.86"/>
    <polygon class="cls-3" points="1179.04 376.6 1179.04 1381.8 1007.77 1542.64 1007.77 447.37 785.62 239.26 548.29 461.6 548.29 628.67 376.85 468.06 376.85 374.86 653.61 115.6 777.01 0 909.03 123.67 1007.77 216.16 1179.04 376.6"/>
    <polygon class="cls-4" points="1559.06 228.27 1559.06 1048.61 1387.79 1209.46 1387.79 613.76 1245.23 747.3 1245.23 522.26 1387.79 388.71 1559.06 228.27"/>
    <polygon class="cls-5" points="677.87 467.97 605.05 547.09 677.87 626.19 677.87 665.03 587.16 566.47 569.59 547.38 587.47 527.98 677.87 429.76 677.87 467.97"/>
    <polygon class="cls-6" points="986.83 547.41 968.95 566.82 876.9 666.84 876.9 628.62 951.38 547.71 876.9 466.79 876.9 427.95 969.25 528.31 986.83 547.41"/>
    <polygon class="cls-7" points="828.48 366.44 814.87 429.85 750.44 730.46 725.72 730.46 803.76 366.44 828.48 366.44"/>
</svg>