<svg id="Layer_1" data-name="Layer 1" xmlns="http://www.w3.org/2000/svg" xmlns:xlink="http://www.w3.org/1999/xlink" viewBox="0 0 436.05 238.41"><defs><style>.cls-1{fill:none;stroke-miterlimit:10;stroke-width:8px;stroke:url(#linear-gradient);}</style><linearGradient id="linear-gradient" x1="573.19" y1="953.34" x2="1009.25" y2="953.34" gradientUnits="userSpaceOnUse"><stop offset="0" stop-color="#fff"/><stop offset="0.09" stop-color="#f8fcf8"/><stop offset="0.23" stop-color="#e3f3e3"/><stop offset="0.39" stop-color="#c2e5c2"/><stop offset="0.58" stop-color="#93d293"/><stop offset="0.78" stop-color="#58b958"/><stop offset="1" stop-color="#109b10"/><stop offset="1" stop-color="#0f9b0f"/></linearGradient></defs><title>roundflesh</title><path class="cls-1" d="M574,1057c120.8,24.82,213.79,8.41,233-37.5,10.83-25.9,2.65-71.85-28-91-19.46-12.16-49-14.16-67,.5-27,22-21.58,76.14,2,102.5,38.18,42.69,134.19,23.91,191.5-18.5,76.9-56.91,81.07-154.14,81.5-170-30.87,26.29-39.68,32.38-40.5,31.5-1.75-1.88,28.13-40.69,44.06-34.69,12,4.51,15.19,34.05,14.63,50.25-.11,3-.34,5.55-.56,7.5" transform="translate(-573.19 -834.13)"/></svg>